<?xml version="1.0" encoding="utf-8"?>
<!-- Generator: Adobe Illustrator 25.3.1, SVG Export Plug-In . SVG Version: 6.00 Build 0)  -->
<svg version="1.1" id="Layer_1" xmlns="http://www.w3.org/2000/svg" xmlns:xlink="http://www.w3.org/1999/xlink" x="0px" y="0px"
	 viewBox="0 0 802 121" style="enable-background:new 0 0 802 121;" xml:space="preserve">
<style type="text/css">
	.st0{clip-path:url(#SVGID_2_);}
	.st1{fill:#FFFFFF;}
</style>
<g>
	<defs>
		<rect id="SVGID_1_" x="0.3" y="0.1" width="801.5" height="120.8"/>
	</defs>
	<clipPath id="SVGID_2_">
		<use xlink:href="#SVGID_1_"  style="overflow:visible;"/>
	</clipPath>
	<g class="st0">
		<path class="st1" d="M147.3,81.8c1.5,1.2,3.1,2.3,4.8,3.1c3.5,1.8,7.2,3.1,11.1,3.8c1.7,0.3,3.4,0.5,5.1,0.5
			c3.9,0,6.9-0.8,9.1-2.4c2.2-1.6,3.3-4,3.3-7.3c0.1-2.2-0.5-4.4-1.8-6.3c-1.2-1.7-3.4-3.4-6.5-5c-1.8-1-3.6-1.8-5.2-2.6
			c-1.6-0.8-3.2-1.6-4.8-2.4c-1.5-0.8-3-1.7-4.4-2.6c-1.5-0.9-2.9-2-4.2-3.1c-2.4-2.1-4.5-4.7-6.1-7.5c-1.7-3.1-2.5-6.6-2.4-10.2
			c0-2.6,0.5-5.2,1.7-7.6c1.1-2.3,2.8-4.4,4.8-6c2.3-1.8,4.9-3.1,7.7-3.9c3.3-1,6.8-1.4,10.2-1.4c7.5-0.1,15,1.3,22,4.2v11.9
			c0,0.4,0,0.7-0.2,1c-0.2,0.3-0.5,0.5-0.8,0.7c-0.3,0.1-0.7,0.1-1.1,0c-0.4-0.1-0.7-0.3-0.9-0.5c-4.7-4.2-10.8-6.5-17.1-6.6
			c-3.4,0-6,0.7-7.8,2.2c-0.9,0.7-1.6,1.7-2.1,2.7c-0.5,1.1-0.7,2.2-0.6,3.4c0,1.6,0.3,3.3,0.9,4.8c0.7,1.4,1.6,2.6,2.9,3.5
			c2.4,2,5,3.7,7.8,5.1c2.8,1.5,5.5,2.8,8.1,4.1c2.3,1,4.5,2.3,6.6,3.7c1.9,1.3,3.5,2.8,4.9,4.6c1.4,1.7,2.4,3.7,3.1,5.9
			c0.7,2.5,1.1,5.1,1,7.7c0.1,3.2-0.6,6.4-2.1,9.3c-1.4,2.6-3.5,4.8-5.9,6.4c-2.7,1.8-5.7,3-8.9,3.7c-3.6,0.8-7.2,1.2-10.9,1.2
			c-3,0-6-0.4-8.9-1c-2.8-0.6-5.6-1.4-8.2-2.4c-2.1-0.8-4-1.9-5.7-3.3c-1.4-1.2-1.8-2.4-1.3-3.6L147.3,81.8z"/>
		<path class="st1" d="M204.9,22.2h16.3v26.5c2-1.7,4.3-3,6.8-4c2.6-1,5.5-1.6,8.3-1.5c2.8,0,5.5,0.4,8.1,1.2
			c2.3,0.7,4.4,1.9,6.3,3.5c1.7,1.5,3.1,3.3,4,5.4c1,2.2,1.5,4.6,1.4,7v38.3h-14.9V62.3c0-5.3-2.9-7.9-8.7-7.9c-2,0-3.9,0.4-5.7,1.2
			c-2,0.9-3.9,1.9-5.6,3.2v39.8h-14.9V31.8c0-1.3-0.1-2.6-0.5-3.9c-0.4-1.1-1.1-2.2-1.9-3c-0.3-0.2-0.4-0.5-0.5-0.9
			c-0.1-0.3-0.1-0.7,0.1-1c0.2-0.2,0.4-0.5,0.6-0.6C204.3,22.3,204.6,22.2,204.9,22.2z"/>
		<path class="st1" d="M284.3,45.1v53.5h-15V54.5c0-1.3-0.1-2.5-0.5-3.7c-0.4-1.1-1.1-2.1-1.9-2.9c-0.3-0.2-0.4-0.5-0.5-0.9
			c-0.1-0.3-0.1-0.7,0.1-1c0.1-0.3,0.3-0.5,0.6-0.7c0.3-0.2,0.6-0.2,0.9-0.2L284.3,45.1z M284.8,28.1c0,1.2-0.2,2.4-0.6,3.5
			c-0.4,1.1-1.1,2.1-1.9,3c-1.8,1.6-4.1,2.5-6.5,2.5c-2.4,0-4.7-0.9-6.5-2.5c-0.8-0.9-1.5-1.9-1.9-3c-0.4-1.1-0.6-2.3-0.6-3.5
			c0-1.2,0.2-2.4,0.6-3.5c0.4-1.1,1.1-2.1,1.9-3c1.8-1.6,4.1-2.5,6.5-2.5c2.4,0,4.7,0.9,6.5,2.5c0.8,0.9,1.5,1.9,1.9,3
			C284.6,25.8,284.8,26.9,284.8,28.1L284.8,28.1z"/>
		<path class="st1" d="M296.4,45.1h15.9v5.2c2-1.9,4.2-3.6,6.6-5c2.7-1.5,5.7-2.2,8.7-2.1c2.7,0,5.4,0.4,7.9,1.2
			c2.3,0.7,4.5,1.9,6.3,3.5c1.8,1.5,3.3,3.5,4.2,5.7c1.1,2.4,1.6,5.1,1.5,7.8v37.2h-14.9V62.7c0-3-0.7-5.2-2-6.6
			c-1.3-1.4-3.6-2-6.6-2c-2,0-4,0.4-5.9,1.2c-1.9,0.9-3.8,2.1-5.3,3.5v39.8h-15V54.7c0-1.3-0.1-2.6-0.5-3.9
			c-0.4-1.1-1.1-2.1-1.9-2.9c-0.6-0.7-0.8-1.3-0.5-1.9c0.1-0.3,0.3-0.5,0.6-0.7C295.8,45.1,296.1,45.1,296.4,45.1z"/>
		<path class="st1" d="M358.9,22.2h16.3v26.5c2-1.7,4.3-3,6.8-4c2.6-1,5.4-1.5,8.2-1.5c2.8,0,5.5,0.4,8.1,1.2
			c2.3,0.7,4.4,1.9,6.3,3.5c1.7,1.5,3.1,3.3,4,5.4c1,2.2,1.5,4.6,1.4,7v38.3h-14.9V62.3c0-5.3-2.9-7.9-8.7-7.9c-2,0-3.9,0.4-5.7,1.2
			c-2,0.9-3.8,1.9-5.6,3.2v39.8h-15V31.8c0-1.3-0.1-2.6-0.5-3.9c-0.4-1.1-1.1-2.1-1.9-3c-0.6-0.7-0.7-1.3-0.4-1.9
			c0.1-0.3,0.4-0.5,0.6-0.6C358.4,22.3,358.6,22.2,358.9,22.2z"/>
		<path class="st1" d="M444,53.3c-3,0-5.9,0.5-8.7,1.6c-2.6,1-5.1,2.3-7.5,3.8c-1.1,0.7-1.9,0.9-2.5,0.6s-0.9-1-0.9-2.1v-9.9
			c3.2-1.4,6.5-2.3,9.9-2.9c3.5-0.6,7-1,10.5-1c7.4,0,13.1,1.4,17.2,4.3c4,2.9,6.1,7.3,6.1,13.2v37.8h-14.7v-5.8
			c-2,2.5-4.5,4.5-7.4,5.7c-2.9,1.2-6,1.8-9.1,1.8c-2.5,0-5-0.4-7.3-1.2c-2.1-0.7-4-1.9-5.6-3.4c-1.6-1.5-2.9-3.4-3.7-5.4
			c-0.9-2.2-1.4-4.5-1.3-6.9c0-5.7,2-10.2,6-13.6c4-3.3,10.2-5,18.6-5h9.7v-4c0-2.7-0.8-4.6-2.4-5.8C448.8,53.7,446.4,53.1,444,53.3
			z M453.3,74.8h-9.7c-3.7,0-6.3,0.8-7.8,2.3c-0.8,0.8-1.4,1.7-1.8,2.8c-0.4,1-0.6,2.1-0.5,3.2c-0.1,1.9,0.6,3.7,1.8,5.1
			c0.7,0.7,1.5,1.2,2.3,1.6c0.9,0.3,1.8,0.5,2.8,0.4c2.5,0,5-0.5,7.2-1.7c2.2-1.1,4.2-2.7,5.8-4.6V74.8z"/>
		<path class="st1" d="M479.3,45.1h15.9v5.2c2-1.9,4.2-3.6,6.6-5c2.7-1.5,5.7-2.2,8.7-2.1c2.7,0,5.4,0.4,7.9,1.2
			c2.3,0.7,4.5,1.9,6.3,3.5c1.8,1.5,3.3,3.5,4.2,5.7c1.1,2.4,1.6,5.1,1.5,7.8v37.2h-15V62.7c0-3-0.7-5.2-2-6.6c-1.3-1.4-3.6-2-6.6-2
			c-2,0-4,0.4-5.9,1.2c-1.9,0.9-3.8,2.1-5.3,3.5v39.8h-15V54.7c0-1.3-0.1-2.6-0.5-3.9c-0.4-1.1-1.1-2.1-1.8-2.9
			c-0.6-0.7-0.8-1.3-0.5-1.9c0.1-0.3,0.3-0.5,0.6-0.7C478.6,45.1,478.9,45.1,479.3,45.1z"/>
		<path class="st1" d="M562.3,24.3h26.2c3.6,0,7.1,0.4,10.6,1.3c2.9,0.7,5.6,2,8,3.7c2.1,1.5,3.9,3.6,5.1,5.9
			c1.2,2.4,1.9,5.1,1.8,7.8c0,7.2-2.8,12.5-8.4,15.9c3.6,1.3,6.8,3.6,9.1,6.6c2.2,2.9,3.3,6.9,3.3,11.8c0.1,3.2-0.6,6.4-2,9.2
			c-1.4,2.7-3.3,4.9-5.8,6.7c-2.7,1.9-5.8,3.2-9,4c-3.8,0.9-7.7,1.4-11.6,1.3h-25.9V33.9c0-1.3-0.1-2.6-0.5-3.9
			c-0.4-1.1-1.1-2.1-1.9-2.9c-0.3-0.2-0.4-0.5-0.5-0.9c-0.1-0.3-0.1-0.7,0-1c0.1-0.3,0.3-0.5,0.6-0.7
			C561.6,24.4,562,24.3,562.3,24.3z M579.3,54.6h8.2c3.6,0,6.4-0.7,8.2-2.2c1.9-1.5,2.8-4,2.8-7.6s-1-6.2-2.9-7.7
			c-1.9-1.5-4.8-2.2-8.5-2.2h-7.9L579.3,54.6z M601.9,76.5c0-4-1.1-6.9-3.3-8.7c-2.2-1.8-5.5-2.7-10-2.7h-9.4V88h9.5
			c4.5,0,7.8-0.9,10-2.8C600.9,83.4,601.9,80.5,601.9,76.5z"/>
		<path class="st1" d="M649.2,53.3c-3,0-5.9,0.5-8.7,1.6c-2.6,1-5.1,2.3-7.5,3.8c-1.1,0.7-1.9,0.9-2.5,0.6s-0.8-1-0.8-2.1v-9.9
			c3.2-1.4,6.5-2.3,9.9-2.9c3.5-0.6,7-1,10.5-1c7.4,0,13.2,1.4,17.2,4.3c4,2.9,6,7.3,6,13.2v37.8h-14.6v-5.8c-2,2.5-4.5,4.5-7.4,5.7
			c-2.9,1.2-6,1.8-9.1,1.8c-2.5,0-5-0.4-7.3-1.2c-2.1-0.7-4-1.9-5.7-3.5c-1.6-1.5-2.8-3.3-3.7-5.3c-0.9-2.2-1.3-4.5-1.3-6.9
			c0-5.7,2-10.2,6-13.6c4-3.3,10.2-5,18.6-5h9.6v-4c0-2.7-0.8-4.6-2.4-5.8C653.9,53.8,651.6,53.1,649.2,53.3z M658.4,74.8h-9.7
			c-3.7,0-6.3,0.8-7.9,2.3c-0.8,0.8-1.4,1.7-1.8,2.8c-0.4,1-0.6,2.1-0.5,3.2c-0.1,1.9,0.5,3.7,1.8,5.1c0.7,0.7,1.5,1.2,2.3,1.5
			c0.9,0.3,1.8,0.5,2.8,0.4c2.5,0,5-0.5,7.2-1.7c2.2-1.1,4.2-2.6,5.8-4.5L658.4,74.8z"/>
		<path class="st1" d="M684.4,45.1h15.9v5.2c2-1.9,4.2-3.6,6.6-5c2.7-1.5,5.7-2.2,8.7-2.1c2.7,0,5.4,0.4,7.9,1.2
			c2.3,0.7,4.5,1.9,6.3,3.5c1.8,1.5,3.3,3.5,4.2,5.7c1.1,2.4,1.6,5.1,1.5,7.8v37.2h-14.9V62.7c0-3-0.7-5.2-2-6.6
			c-1.3-1.4-3.6-2-6.6-2c-2,0-4,0.4-5.9,1.2c-1.9,0.9-3.7,2.1-5.3,3.5v39.8h-15V54.7c0-1.3-0.1-2.6-0.5-3.9
			c-0.4-1.1-1.1-2.1-1.9-2.9c-0.6-0.7-0.8-1.3-0.5-1.9c0.1-0.3,0.3-0.5,0.6-0.7C683.8,45.1,684.1,45.1,684.4,45.1z"/>
		<path class="st1" d="M748.3,98.6V31.8c0-1.3-0.1-2.6-0.5-3.9c-0.4-1.1-1.1-2.1-1.9-3c-0.6-0.7-0.7-1.3-0.4-1.9
			c0.1-0.3,0.4-0.5,0.6-0.6c0.3-0.1,0.6-0.2,0.9-0.2h16.3V66l18.9-20.9h17.1l-20.5,22.8l22.9,30.7h-16.5l-16.5-22.3
			c-0.6-0.9-1.3-1.7-2.2-2.3c-0.7-0.3-1.4-0.5-2.1-0.5h-1.3v25.1L748.3,98.6z"/>
		<path class="st1" d="M103.4,17.8C92.1,6.4,76.7,0.1,60.7,0.1C48.7,0.1,37,3.6,27.1,10.3C17.2,16.9,9.4,26.3,4.9,37.4
			s-5.8,23.2-3.4,34.9C3.7,84,9.5,94.8,18,103.2c8.4,8.5,19.2,14.2,30.9,16.5c11.7,2.3,23.9,1.1,34.9-3.4s20.5-12.3,27.1-22.3
			c6.6-9.9,10.2-21.6,10.2-33.6C121.1,44.5,114.7,29.1,103.4,17.8z M61.9,109.9c-7.2,1-19-0.8-27-5.9c-6-3.8-10.8-9.2-13.8-15.6
			c-2.8-5.7-4.1-12.7-1.1-12.3c1.4,0.2,2.6,2.8,5.2,6.2c1.8,2.3,3.5,4.3,4.7,4.5c0.6,0.1,1-0.1,1.4-0.9c0.8-1.4,1.8-4.2,3.6-6.4
			c1.4-1.7,3.2-2.5,4.2,1.7c0.5,2,0.9,4,1.1,6c0.3,2.6,0.5,4.2,1.4,4.6c0.9,0.4,2.3-0.1,4.7-1c1.7-0.6,3.9-1.5,6.7-2.2
			c2.6-0.7,4.2-0.3,2.5,3.6c-1.1,2.6-2.6,5.1-4.3,7.4c-0.2,0.3-0.3,0.7-0.3,1c0,0.4,0.2,0.7,0.5,1c1.6,1.3,3.4,2.3,5.3,3
			c1.8,0.8,3.6,1.4,5.5,1.9C64.7,107.2,64.3,109.5,61.9,109.9z M92.9,96.9c-2.2,3.7-7,7.6-12.7,10.2c-0.9,0.4-1.8,0.3-2-0.4
			c-0.2-0.7,0.3-1.3,0.8-2C86.6,95,81,86.2,69,79.3c-8.9-5.1-14.5-8-21.1-11.9C28.7,56.1,25,46.3,24.3,40.4
			C22.4,25.7,34.5,14.7,47,12c0.4-0.1,1.4-0.2,1.7,0.6s-0.4,1.4-0.9,1.7c-5.6,3.1-11.1,9.6-10.5,16.9c0.3,4.1,2.1,9.9,13.1,17.7
			c6.6,4.7,14.8,8.6,31.1,18.4C98.9,77.7,96.9,90.4,92.9,96.9L92.9,96.9z M95.6,41.6c-4,4.8-7.9,3-10.9-3.8
			c-1.9-4.2-4.4-5.3-6.2-4.2c-1.9,1.2-1.2,4.1,1,7.5c0.6,1,0.9,2.1,0.7,3.3c-0.1,1.1-0.6,2.2-1.4,3c-0.9,0.8-2,1.4-3.2,1.7
			c-1.2,0.3-2.4,0.3-3.6-0.1c-4.9-1.1-9.7-7.6-6.2-21.9c1.4-5.7-1.3-8.2-3.1-10.4c-0.9-1.1-1-1.8-0.7-2.2c0.3-0.4,1.2-0.5,2.6-0.2
			c1.9,0.4,4.7,1.3,6.9,1.7c1.7,0.2,3.3,0.3,5,0.2c4.2-0.3,8.3,0.5,12.1,2.4c6.2,3.1,6.8,8.4,3.4,8c-1.4-0.4-2.8-0.9-4-1.7
			c-0.8-0.4-1.6-0.5-2.1-0.2c-0.3,0.2-0.5,0.5-0.5,0.9c-0.1,0.3,0,0.7,0.2,1c0.8,1.6,3.4,2.5,6.9,3.4C98.8,31.9,98.9,37.6,95.6,41.6
			z"/>
	</g>
</g>
</svg>
