<?xml version="1.0" encoding="UTF-8"?>
<svg width="195px" height="264px" viewBox="0 0 195 264" version="1.1" xmlns="http://www.w3.org/2000/svg" xmlns:xlink="http://www.w3.org/1999/xlink">
    <title>Fill 1</title>
    <g id="UI-Proposal" stroke="none" stroke-width="1" fill="none" fill-rule="evenodd" opacity="0.297874814">
        <g id="UI_Proposal-Revise-1" transform="translate(0.000000, -2583.000000)" fill="#00B9EF">
            <g id="Group-40" transform="translate(0.000000, 1679.000000)">
                <g id="Group-31" transform="translate(0.000000, 784.000000)">
                    <path d="M-41.764187,-66.7761128 C-166.674735,-61.1100453 -263.396896,44.7885846 -257.766106,169.752068 C-252.083658,294.681107 -146.183482,391.365919 -21.2384944,385.76874 C103.654835,380.119894 200.428654,274.238486 194.763425,149.275003 C189.339269,27.7387157 89.0354445,-66.9827779 -31.415243,-67 C-34.8419316,-67 -38.2858397,-66.9655558 -41.764187,-66.7761128 M-15.6013544,358.996529 C-15.8255215,353.855625 -8.34178786,352.579025 -8.34178786,352.579025 C58.7704041,339.329984 39.1299142,295.373532 15.4199286,272.877766 C5.4186256,263.475777 -87.9556085,182.842945 -87.9556085,182.842945 C-177.018936,106.143422 -169.862831,46.2639695 -169.862831,46.2639695 C-165.500194,-27.4165666 -101.095251,-45.6685 -52.261303,-41.4246667 C-46.5881501,-40.9243774 -43.363592,-37.5258605 -44.4671841,-32.7127325 C-45.484558,-27.5545775 -53.0545098,-27.1577963 -53.0545098,-27.1577963 C-68.5910167,-26.2262232 -82.4721355,-24.6908526 -93.0424782,-17.5315404 C-132.323458,8.91478648 -120.804716,53.9408224 -68.3496059,104.038757 C-61.7280536,110.335501 -54.7443851,116.994524 -47.4503313,123.791558 C-47.4503313,123.791558 -37.0006941,133.021033 -15.9979577,152.963599 C24.3003959,190.088514 46.3377498,210.117337 46.3377498,210.117337 C117.398732,269.306735 93.1024632,323.441486 65.9954833,342.228212 C45.2858886,356.581339 22.3691098,363.361121 -7.7727482,364.982749 C-7.99691534,364.982749 -8.27281335,365 -8.54871137,365 C-11.2904479,365 -15.4289181,363.361121 -15.6013544,358.996529 M2.45721353,139.810514 C-20.5599012,135.021682 -25.253046,114.160977 -25.253046,114.160977 C-27.151009,106.788242 -27.6168726,97.5034201 -26.081248,85.6863736 C-22.9754904,60.9325895 -16.2290947,49.3739332 -8.61998859,30.1497 C1.59450308,4.41403306 -23.2860662,-10.6587304 -19.1968187,-20.1158128 C-13.6237092,-32.9147422 4.16538021,-16.6533837 24.0767373,-15.4303366 C41.1411499,-14.5173578 51.4419126,-15.2925285 64.6931451,-13.552701 C82.3959634,-11.2444149 103.515115,-5.24976156 112.901405,5.77488828 C121.563018,15.8865593 108.346294,28.1514822 92.5069298,20.4686794 C80.9638641,14.8013203 66.3840575,18.2982014 74.9593994,30.3219602 C85.2083995,41.7944864 90.125849,42.1045547 100.650916,44.8434911 C129.534462,52.4401639 130.155614,80.1395966 110.554832,94.4027373 C88.3659197,110.681322 65.7456518,103.911498 56.7734632,72.0433694 C52.2356062,56.1093052 41.0031162,47.9786259 29.4082878,52.54352 C17.9860015,57.056736 24.7496514,77.9863447 33.4802811,97.41729 C48.5604597,135.951886 18.0032558,140 6.33941053,140 C4.51046439,140 3.13012768,139.862192 2.45721353,139.810514 M-82.9401731,351.417398 C-107.894091,348.967044 -137.677244,341.153326 -163.645129,318.723157 C-187.585079,298.177876 -202.31339,269.887419 -209.531465,244.98976 C-216.887028,219.492365 -219.980489,189.813944 -207.79569,192.127216 C-204.083537,192.795495 -197.638827,209.211157 -190.575425,221.068816 C-183.340164,233.389131 -177.49696,240.226134 -171.92873,244.372888 C-169.488333,246.257776 -160.929758,227.340353 -148.555915,216.596491 C-141.286282,210.667661 -133.501072,208.64569 -132.126201,226.346503 C-130.648214,248.074123 -134.549412,273.845684 -128.104701,273.845684 C-122.295869,273.845684 -108.856501,269.407629 -79.399879,266.905869 C-68.3493494,265.98056 -62.0077546,268.071072 -72.5942651,282.841741 C-77.8875203,290.244211 -84.882179,300.713908 -101.586868,312.691515 C-76.5813924,336.029857 -46.5576363,333.185389 -46.0076877,343.175296 C-45.6639698,348.847096 -56.8863583,352 -71.5631115,352 C-75.189335,352 -79.0046034,351.794376 -82.9401731,351.417398" id="Fill-1"></path>
                </g>
            </g>
        </g>
    </g>
</svg>